# xmcd
#
# Track frame offsets:
#	150
#	25060
#	40960
#	58662
#	77297
#	96167
#	113154
#	127196
#	145368
#	161443
#	177600
#	198017
#	217079
#
# Disc length: 3151 seconds
#
# Revision: 7
# Processed by: cddbd v1.4PL0 Copyright (c) Steve Scherf et al.
# Submitted via: EasyCDDAExtractor 5.0.7
#
DISCID=b50c4d0d
DTITLE=Faith Hill - Breathe
DYEAR=1999
DGENRE=Country
TTITLE0=What's In It For Me
TTITLE1=I Got My Baby
TTITLE2=Love Is A Sweet Thing
TTITLE3=Breathe
TTITLE4=Let's Make Love
TTITLE5=It Will Be Me
TTITLE6=The Way You Love Me
TTITLE7=If I'm Not In Love
TTITLE8=Bringing Out The Elvis
TTITLE9=If My Heart Had Wings
TTITLE10=If I Should Fall Behind
TTITLE11=That's How Love Moves
TTITLE12=There Will Come A Day
EXTD=
EXTT0=
EXTT1=
EXTT2=
EXTT3=
EXTT4=
EXTT5=
EXTT6=
EXTT7=
EXTT8=
EXTT9=
EXTT10=
EXTT11=
EXTT12=
PLAYORDER=
